<svg width="26" height="19" viewBox="0 0 26 19" fill="none" xmlns="http://www.w3.org/2000/svg">
    <path fill-rule="evenodd" clip-rule="evenodd" d="M26.0001 14.5833C26.0001 16.6084 24.3585 18.25 22.3334 18.25H9.33004C8.28484 18.25 7.28932 17.8039 6.59362 17.0239L1.83687 11.6906C0.596532 10.2999 0.596532 8.20009 1.83687 6.80941L6.59362 1.47608C7.28932 0.696053 8.28484 0.25 9.33004 0.25H22.3334C24.3585 0.25 26.0001 1.89162 26.0001 3.91667V14.5833ZM14.9596 12.6238C15.3501 13.0143 15.9833 13.0143 16.3738 12.6238C16.7643 12.2332 16.7643 11.6001 16.3738 11.2096L14.4143 9.25L16.3738 7.29044C16.7643 6.89992 16.7643 6.26675 16.3738 5.87623C15.9833 5.4857 15.3501 5.4857 14.9596 5.87623L13 7.83579L11.0405 5.87623C10.65 5.4857 10.0168 5.4857 9.62627 5.87623C9.23574 6.26675 9.23574 6.89992 9.62627 7.29044L11.5858 9.25L9.62627 11.2096C9.23574 11.6001 9.23574 12.2332 9.62627 12.6238C10.0168 13.0143 10.65 13.0143 11.0405 12.6238L13 10.6642L14.9596 12.6238Z" fill="#011A1A" fill-opacity="0.4"/>
</svg>
