<svg width="24" height="24" viewBox="0 0 24 24" fill="none" xmlns="http://www.w3.org/2000/svg">
<path fill-rule="evenodd" clip-rule="evenodd" d="M7.40899 14.246L5.87399 7H18.5C19.151 7 19.628 7.611 19.47 8.243L18.122 13.635C17.917 14.454 17.221 15.056 16.381 15.14L9.56499 15.822C8.54899 15.923 7.61999 15.244 7.40899 14.246Z" stroke="#011A1A" stroke-width="1.5" stroke-linecap="round" stroke-linejoin="round"/>
<path d="M5.874 7L5.224 4H3.5" stroke="#011A1A" stroke-width="1.5" stroke-linecap="round" stroke-linejoin="round"/>
<path d="M17.109 19.2668C16.907 19.2668 16.743 19.4308 16.745 19.6328C16.745 19.8348 16.909 19.9988 17.111 19.9988C17.313 19.9988 17.477 19.8348 17.477 19.6328C17.476 19.4308 17.312 19.2668 17.109 19.2668" stroke="#011A1A" stroke-width="1.5" stroke-linecap="round" stroke-linejoin="round"/>
<path d="M8.697 19.2673C8.495 19.2673 8.331 19.4313 8.333 19.6333C8.331 19.8363 8.496 20.0003 8.698 20.0003C8.9 20.0003 9.064 19.8363 9.064 19.6343C9.064 19.4313 8.9 19.2673 8.697 19.2673" stroke="#011A1A" stroke-width="1.5" stroke-linecap="round" stroke-linejoin="round"/>
</svg>
