<svg width="189" height="189" viewBox="0 0 189 189" fill="none" xmlns="http://www.w3.org/2000/svg">
    <path d="M164.803 79.4058L164.808 79.4115L164.813 79.417C165.37 80.0219 165.799 80.7333 166.073 81.5083C166.347 82.2833 166.461 83.1059 166.408 83.9263C166.356 84.7467 166.138 85.5479 165.767 86.2815C165.396 87.0152 164.88 87.6661 164.251 88.1949L164.247 88.1982C163.639 88.7196 162.932 89.1136 162.169 89.3568C161.406 89.5999 160.602 89.6873 159.804 89.6136C159.007 89.54 158.232 89.3069 157.526 88.9282C156.82 88.5494 156.198 88.0328 155.696 87.4088L155.696 87.4088L155.688 87.3994C148.965 79.4549 140.792 72.8618 131.605 67.9714L131.605 67.9712C117.475 60.4644 101.416 57.377 85.5097 59.1095C69.6037 60.8419 54.5855 67.3143 42.4032 77.6869L42.4032 77.6868L42.3952 77.6939C38.9972 80.7144 35.7734 83.9252 32.7391 87.3109L32.7324 87.3185L32.7259 87.3263C32.204 87.9583 31.562 88.4806 30.8369 88.8629C30.1119 89.2452 29.3182 89.48 28.5019 89.5536C27.6855 89.6272 26.8627 89.5382 26.0809 89.2917C25.3006 89.0457 24.5767 88.6477 23.9509 88.1206C23.3349 87.581 22.8337 86.923 22.477 86.1858C22.1197 85.4473 21.9148 84.6443 21.8745 83.8248C21.8343 83.0053 21.9595 82.1861 22.2428 81.4161C22.526 80.6461 22.9614 79.941 23.5231 79.3429L23.5324 79.333L23.5411 79.3227C38.4487 61.613 59.4797 50.1679 82.446 47.2665L82.4487 47.2662C84.3089 47.0207 86.1711 46.8156 88.0284 46.7387C89.3597 46.6836 90.8698 46.6942 92.381 46.7047C92.9862 46.709 93.5915 46.7132 94.1855 46.7132C122.555 47.1526 146.173 57.9003 164.803 79.4058Z" fill="#B3B3B3" stroke="#263238"/>
    <path d="M144.431 96.512L144.439 96.5207L144.447 96.5291C145.01 97.1252 145.445 97.8311 145.725 98.6026C146.004 99.3742 146.122 100.195 146.07 101.014C146.018 101.833 145.799 102.632 145.425 103.363C145.051 104.093 144.531 104.739 143.896 105.259L143.896 105.259L143.886 105.268C143.273 105.8 142.558 106.202 141.785 106.449C141.012 106.696 140.197 106.783 139.389 106.705C138.581 106.626 137.797 106.384 137.086 105.994C136.375 105.603 135.75 105.071 135.251 104.431L135.251 104.431L135.242 104.42C128.524 96.2889 119.485 90.4 109.333 87.5398L109.328 87.5384C88.2711 81.8396 69.9425 87.0528 54.6565 102.665L54.6562 102.666C54.243 103.088 53.851 103.537 53.4732 103.969C53.3202 104.144 53.1694 104.317 53.0206 104.484L53.0158 104.489L53.0112 104.495C52.4922 105.111 51.8558 105.619 51.1389 105.988C50.4221 106.356 49.6391 106.579 48.8354 106.642C48.0318 106.706 47.2236 106.609 46.4577 106.358C45.6919 106.106 44.9836 105.705 44.3742 105.177C43.7648 104.649 43.2663 104.006 42.9078 103.284C42.5492 102.562 42.3378 101.776 42.2857 100.971C42.2336 100.167 42.3419 99.3599 42.6043 98.5977C42.8667 97.8355 43.278 97.133 43.8143 96.5311L43.8144 96.5312L43.8232 96.5208C49.6374 89.6247 56.8086 83.9989 64.8906 79.9936L64.8909 79.9934C74.1287 75.4066 83.9373 73.1777 96.5431 73.1382C114.41 73.6029 131.253 81.2228 144.431 96.512Z" fill="#B3B3B3" stroke="#263238"/>
    <path d="M125.92 117.249L125.674 117.351L125.676 117.687C125.681 118.919 125.311 120.124 124.616 121.142C123.921 122.16 122.933 122.943 121.784 123.387L121.78 123.389C120.616 123.85 119.336 123.934 118.122 123.629C116.907 123.325 115.819 122.646 115.011 121.69L115.01 121.69C112.225 118.402 108.722 115.798 104.772 114.077L104.768 114.075C93.7541 109.401 81.6043 112.261 73.4194 121.487L73.4094 121.498L73.4 121.51C72.6519 122.464 71.6271 123.163 70.466 123.512C69.305 123.86 68.0646 123.841 66.9149 123.457L66.9149 123.457L66.9057 123.454C65.9503 123.155 65.0836 122.625 64.3828 121.91C63.682 121.195 63.1689 120.318 62.8892 119.356C62.6095 118.395 62.5719 117.38 62.7796 116.4C62.9874 115.421 63.4341 114.508 64.08 113.744L64.08 113.744L64.0825 113.741C67.7544 109.325 72.3552 105.773 77.5569 103.339C82.7586 100.905 88.4331 99.6475 94.1763 99.6573C99.9194 99.6671 105.59 100.943 110.783 103.395C115.967 105.843 120.549 109.402 124.203 113.82C124.896 114.899 125.472 116.049 125.92 117.249Z" fill="#B3B3B3" stroke="#263238"/>
    <path d="M94.1783 151.774L94.1753 151.774C91.6556 151.781 89.1904 151.04 87.0926 149.644C84.9948 148.248 83.3589 146.261 82.3923 143.934C81.4258 141.607 81.1722 139.045 81.6638 136.574C82.1554 134.103 83.37 131.833 85.1535 130.053C86.937 128.273 89.209 127.063 91.6813 126.576C94.1536 126.089 96.7147 126.348 99.0398 127.319C101.365 128.29 103.349 129.93 104.741 132.031C106.133 134.131 106.869 136.598 106.857 139.118L106.857 139.121C106.858 140.785 106.531 142.433 105.894 143.97C105.258 145.508 104.323 146.905 103.145 148.08C101.967 149.256 100.569 150.187 99.0301 150.821C97.4913 151.455 95.8425 151.779 94.1783 151.774Z" fill="#B3B3B3" stroke="#263238"/>
    <path d="M94.2542 8.91343e-07C75.6139 -0.00256222 57.3916 5.52273 41.8917 15.8771C26.3918 26.2315 14.3107 40.9498 7.17621 58.1707C0.0417064 75.3915 -1.82568 94.3413 1.81023 112.624C5.44613 130.906 14.422 147.699 27.6026 160.88C40.7833 174.06 57.5767 183.036 75.8589 186.672C94.1411 190.308 113.091 188.441 130.312 181.306C147.533 174.172 162.251 162.091 172.605 146.591C182.96 131.091 188.485 112.868 188.482 94.2282C188.452 69.2468 178.514 45.2974 160.85 27.6329C143.185 9.96837 119.236 0.0308655 94.2542 8.91343e-07ZM12.9725 94.2801C12.9517 78.4899 17.5336 63.036 26.1576 49.8089C34.7816 36.5818 47.0737 26.155 61.5303 19.8039C75.9869 13.4528 91.9812 11.4529 107.556 14.0488C123.132 16.6447 137.613 23.7239 149.228 34.4203L34.3944 149.202C20.6106 134.234 12.9633 114.628 12.9725 94.2801ZM94.2542 175.562C75.9706 175.573 58.223 169.387 43.9067 158.015L157.95 43.9714C167.427 55.9424 173.338 70.3423 175.004 85.5194C176.671 100.696 174.025 116.036 167.372 129.778C160.718 143.52 150.325 155.108 137.385 163.213C124.446 171.318 109.484 175.611 94.2153 175.601L94.2542 175.562Z" fill="#1F504B"/>
</svg>
