<svg width="20" height="16" viewBox="0 0 20 16" fill="none" xmlns="http://www.w3.org/2000/svg">
<path fill-rule="evenodd" clip-rule="evenodd" d="M0.745347 6.92845C1.44633 4.97766 3.81907 0.25 10.2033 0.25C16.5876 0.25 18.9604 4.97766 19.6613 6.92845C19.9113 7.62413 19.9113 8.37587 19.6613 9.07155C18.9604 11.0223 16.5876 15.75 10.2033 15.75C3.81907 15.75 1.44633 11.0223 0.745347 9.07155C0.495366 8.37588 0.495366 7.62413 0.745347 6.92845ZM10.2034 11C11.8602 11 13.2034 9.65685 13.2034 8C13.2034 6.34315 11.8602 5 10.2034 5C8.54651 5 7.20337 6.34315 7.20337 8C7.20337 9.65685 8.54651 11 10.2034 11Z" fill="#011A1A" fill-opacity="0.4"/>
</svg>
