<svg width="19" height="21" viewBox="0 0 19 21" fill="none" xmlns="http://www.w3.org/2000/svg">
    <path d="M15.2114 3.34904C15.1314 3.34904 15.0514 3.32958 14.9814 3.29067C13.0614 2.32742 11.4014 1.91877 9.41135 1.91877C7.43135 1.91877 5.55135 2.37607 3.84135 3.29067C3.60135 3.41715 3.30135 3.32958 3.16135 3.09607C3.03135 2.86256 3.12135 2.56094 3.36135 2.43445C5.22135 1.45175 7.26135 0.945801 9.41135 0.945801C11.5414 0.945801 13.4014 1.4031 15.4414 2.42472C15.6914 2.55121 15.7814 2.8431 15.6514 3.07661C15.5614 3.25175 15.3914 3.34904 15.2114 3.34904ZM0.901352 8.45715C0.801352 8.45715 0.701352 8.42796 0.611352 8.36959C0.381352 8.21391 0.331352 7.91229 0.491352 7.6885C1.48135 6.32634 2.74135 5.25607 4.24135 4.50688C7.38135 2.93067 11.4014 2.92094 14.5514 4.49715C16.0514 5.24634 17.3114 6.30688 18.3014 7.65931C18.4614 7.87337 18.4114 8.18472 18.1814 8.3404C17.9514 8.49607 17.6414 8.44742 17.4814 8.22364C16.5814 6.99769 15.4414 6.03445 14.0914 5.3631C11.2214 3.93283 7.55135 3.93283 4.69135 5.37283C3.33135 6.05391 2.19135 7.02688 1.29135 8.25283C1.21135 8.38904 1.06135 8.45715 0.901352 8.45715ZM7.15135 20.2009C7.02135 20.2009 6.89135 20.1523 6.80135 20.055C5.93135 19.2085 5.46135 18.6636 4.79135 17.4863C4.10135 16.2896 3.74135 14.8301 3.74135 13.2636C3.74135 10.3739 6.28135 8.01931 9.40135 8.01931C12.5214 8.01931 15.0614 10.3739 15.0614 13.2636C15.0614 13.5361 14.8414 13.7501 14.5614 13.7501C14.2814 13.7501 14.0614 13.5361 14.0614 13.2636C14.0614 10.909 11.9714 8.99229 9.40135 8.99229C6.83135 8.99229 4.74135 10.909 4.74135 13.2636C4.74135 14.6647 5.06135 15.9588 5.67135 17.0096C6.31135 18.1285 6.75135 18.6053 7.52135 19.3642C7.71135 19.5588 7.71135 19.8604 7.52135 20.055C7.41135 20.1523 7.28135 20.2009 7.15135 20.2009ZM14.3214 18.4009C13.1314 18.4009 12.0814 18.109 11.2214 17.535C9.73135 16.5523 8.84135 14.9566 8.84135 13.2636C8.84135 12.9912 9.06135 12.7772 9.34135 12.7772C9.62135 12.7772 9.84135 12.9912 9.84135 13.2636C9.84135 14.6355 10.5614 15.9296 11.7814 16.7274C12.4914 17.1944 13.3214 17.4182 14.3214 17.4182C14.5614 17.4182 14.9614 17.389 15.3614 17.3209C15.6314 17.2723 15.8914 17.4474 15.9414 17.7199C15.9914 17.9826 15.8114 18.2355 15.5314 18.2842C14.9614 18.3912 14.4614 18.4009 14.3214 18.4009ZM12.3114 20.4053C12.2714 20.4053 12.2214 20.3955 12.1814 20.3858C10.5914 19.9577 9.55135 19.3836 8.46135 18.3426C7.06135 16.9901 6.29135 15.1901 6.29135 13.2636C6.29135 11.6874 7.67135 10.4031 9.37135 10.4031C11.0714 10.4031 12.4514 11.6874 12.4514 13.2636C12.4514 14.3047 13.3814 15.1512 14.5314 15.1512C15.6814 15.1512 16.6114 14.3047 16.6114 13.2636C16.6114 9.59553 13.3614 6.61823 9.36135 6.61823C6.52135 6.61823 3.92135 8.15553 2.75135 10.5393C2.36135 11.3274 2.16135 12.2517 2.16135 13.2636C2.16135 14.0226 2.23135 15.2193 2.83135 16.7761C2.93135 17.029 2.80135 17.3112 2.54135 17.3988C2.28135 17.4961 1.99135 17.3599 1.90135 17.1166C1.41135 15.842 1.17135 14.5772 1.17135 13.2636C1.17135 12.0961 1.40135 11.0355 1.85135 10.1112C3.18135 7.39661 6.13135 5.63553 9.36135 5.63553C13.9114 5.63553 17.6114 9.05066 17.6114 13.2539C17.6114 14.8301 16.2314 16.1144 14.5314 16.1144C12.8314 16.1144 11.4514 14.8301 11.4514 13.2539C11.4514 12.2128 10.5214 11.3663 9.37135 11.3663C8.22135 11.3663 7.29135 12.2128 7.29135 13.2539C7.29135 14.9177 7.95135 16.4744 9.16135 17.642C10.1114 18.5566 11.0214 19.0626 12.4314 19.442C12.7014 19.5101 12.8514 19.7826 12.7814 20.0355C12.7314 20.2593 12.5214 20.4053 12.3114 20.4053Z" fill="#1F504B"/>
</svg>
