<svg viewBox="0 80 289 288" fill="none" xmlns="http://www.w3.org/2000/svg">
<path d="M136.715 150.236L137.551 153.381L150.545 150.236L162.704 118.378L154.738 115.653L136.715 150.236Z" fill="white" stroke="#263238" stroke-linecap="round" stroke-linejoin="round"/>
<path d="M140.696 107.9L158.719 114.611L149.917 154.43L128.749 147.932L140.696 107.9Z" fill="white" stroke="#263238" stroke-linecap="round" stroke-linejoin="round"/>
<path d="M129.458 145.553L148.241 151.077L156.415 115.653L139.958 110.365L129.458 145.553Z" fill="#1F504B" stroke="#263238" stroke-linecap="round" stroke-linejoin="round"/>
<path d="M139.883 119.126C139.066 118.91 138.212 118.871 137.378 119.011L132.47 135.456C133.181 136.148 134.054 136.649 135.01 136.913C138.858 137.973 143.074 134.845 144.422 129.932C145.77 125.019 143.725 120.18 139.883 119.126Z" fill="white" stroke="#263238" stroke-linecap="round" stroke-linejoin="round"/>
<path d="M106.896 158.164C101.38 155.458 95.6788 153.148 89.8348 151.252C81.4137 148.66 71.4777 151.034 71.2588 153.839C71.0399 156.644 72.5375 155.359 74.5017 158.401C76.4659 161.442 75.5788 168.55 78.3897 175.03C81.2006 181.51 89.6159 184.747 89.6159 184.747L106.896 158.164Z" fill="white" stroke="#263238" stroke-linecap="round" stroke-linejoin="round"/>
<path opacity="0.3" d="M101.28 164.431C101.28 164.431 88.3199 156.223 80.7628 153.412C73.2057 150.601 72.7737 154.708 72.7737 154.708C74.017 155.165 75.0839 156.003 75.8216 157.103C76.5594 158.203 76.93 159.508 76.8806 160.831C76.8806 165.681 79.3055 175.727 85.198 177.8C91.0905 179.874 101.28 164.431 101.28 164.431Z" fill="black"/>
<path d="M193.754 173.602C197.142 172.315 198.767 168.324 197.386 164.687C196.004 161.05 192.138 159.144 188.751 160.431C185.364 161.718 183.738 165.709 185.12 169.346C186.501 172.983 190.367 174.888 193.754 173.602Z" fill="white" stroke="#263238" stroke-linecap="round" stroke-linejoin="round"/>
<path d="M100.894 242.393L108.163 264.2C108.36 264.791 108.738 265.305 109.244 265.669C109.75 266.032 110.357 266.228 110.98 266.227H122.31C122.889 266.228 123.456 266.059 123.941 265.741C124.425 265.422 124.805 264.969 125.034 264.436L130.103 252.674" fill="white"/>
<path opacity="0.3" d="M104.54 242.393L110.553 264.2C110.667 264.747 110.958 265.242 111.38 265.609C111.803 265.975 112.334 266.192 112.892 266.227H122.287C122.803 266.201 123.297 266.014 123.702 265.693C124.107 265.372 124.401 264.933 124.545 264.436L128.749 252.674" fill="black"/>
<path d="M100.894 242.393L108.163 264.2C108.36 264.791 108.738 265.305 109.244 265.669C109.75 266.032 110.357 266.228 110.98 266.227H122.31C122.889 266.228 123.456 266.059 123.941 265.741C124.425 265.422 124.805 264.969 125.034 264.436L130.103 252.674" stroke="#263238" stroke-linecap="round" stroke-linejoin="round"/>
<path d="M155.568 242.393L148.305 264.2C148.107 264.791 147.729 265.305 147.224 265.669C146.718 266.032 146.111 266.228 145.488 266.227H134.17C133.59 266.228 133.023 266.059 132.538 265.741C132.054 265.422 131.674 264.969 131.445 264.436L126.376 252.674" fill="#263238"/>
<path d="M155.568 242.393L148.305 264.2C148.107 264.791 147.729 265.305 147.224 265.669C146.718 266.032 146.111 266.228 145.488 266.227H134.17C133.59 266.228 133.023 266.059 132.538 265.741C132.054 265.422 131.674 264.969 131.445 264.436L126.376 252.674" stroke="#263238" stroke-linecap="round" stroke-linejoin="round"/>
<path d="M179.639 242.393L172.37 264.2C172.173 264.791 171.794 265.305 171.289 265.669C170.783 266.032 170.176 266.228 169.553 266.227H158.223C157.644 266.228 157.076 266.059 156.592 265.741C156.108 265.422 155.728 264.969 155.499 264.436L150.43 252.674" fill="white"/>
<path opacity="0.3" d="M174.49 242.393L169.519 264.2C169.242 265.41 168.47 266.227 167.595 266.227H159.848C159.041 266.227 158.31 265.525 157.987 264.436L153.172 252.916" fill="black"/>
<path d="M179.639 242.393L172.37 264.2C172.173 264.791 171.794 265.305 171.289 265.669C170.783 266.032 170.176 266.228 169.553 266.227H158.223C157.644 266.228 157.076 266.059 156.592 265.741C156.108 265.422 155.728 264.969 155.499 264.436L150.43 252.674" stroke="#263238" stroke-linecap="round" stroke-linejoin="round"/>
<path d="M140.793 256.741C175.204 256.741 203.099 231.442 203.099 200.235C203.099 169.028 175.204 143.729 140.793 143.729C106.383 143.729 78.4875 169.028 78.4875 200.235C78.4875 231.442 106.383 256.741 140.793 256.741Z" fill="white"/>
<path opacity="0.3" d="M183.705 161.626C187.359 168.872 189.263 176.874 189.264 184.989C189.264 216.196 161.368 241.494 126.958 241.494C114.153 241.559 101.601 237.923 90.814 231.022C101.677 245.601 120.069 255.214 140.926 255.214C174.334 255.214 201.406 230.671 201.406 200.391C201.371 185.236 194.609 171.545 183.705 161.626Z" fill="black"/>
<path d="M140.793 256.741C175.204 256.741 203.099 231.442 203.099 200.235C203.099 169.028 175.204 143.729 140.793 143.729C106.383 143.729 78.4875 169.028 78.4875 200.235C78.4875 231.442 106.383 256.741 140.793 256.741Z" stroke="#263238" stroke-linecap="round" stroke-linejoin="round"/>
<path d="M197.858 205.304C196.498 216.685 191.251 227.013 183.348 235.169" stroke="white" stroke-width="2" stroke-linecap="round" stroke-linejoin="round"/>
<path d="M196.827 187.776C197.746 191.588 198.21 195.496 198.209 199.417" stroke="white" stroke-width="2" stroke-linecap="round" stroke-linejoin="round"/>
<path d="M125.345 147.254C130.479 146.054 135.734 145.451 141.007 145.457C144.382 145.456 147.753 145.703 151.092 146.194" stroke="#263238" stroke-width="4" stroke-linecap="round" stroke-linejoin="round"/>
<path d="M153.016 186.699C153.016 186.699 159.064 182.593 159.283 175.035C159.502 167.478 149.56 156.465 141.571 151.926C133.582 147.387 127.747 148.257 127.534 151.494C127.321 154.731 124.51 158.406 123.433 164.667C122.356 170.929 121.918 180.219 130.345 183.243" fill="white"/>
<path d="M153.016 186.699C153.016 186.699 159.064 182.593 159.283 175.035C159.502 167.478 149.56 156.465 141.571 151.926C133.582 147.387 127.747 148.257 127.534 151.494C127.321 154.731 124.51 158.406 123.433 164.667C122.356 170.929 121.918 180.219 130.345 183.243" stroke="#263238" stroke-linecap="round" stroke-linejoin="round"/>
<path opacity="0.3" d="M140.004 184.274L141.243 184.458C146.554 185.224 148.42 181.757 148.264 176.55C148.051 169.206 138.334 153.654 134.227 151.494C130.12 149.334 128.83 152.358 128.83 152.358C128.83 152.358 129.406 152.744 127.384 159.454C126.451 162.553 122.978 173.359 126.417 178.151C129.458 182.385 135.108 183.542 140.004 184.274Z" fill="black"/>
<path opacity="0.3" d="M157.21 176.832H157.129C157.054 176.822 156.981 176.797 156.915 176.759C156.849 176.721 156.792 176.67 156.746 176.61C156.7 176.549 156.666 176.48 156.647 176.407C156.627 176.333 156.623 176.257 156.634 176.181C156.696 175.738 156.732 175.292 156.743 174.845C156.858 170.813 153.569 165.024 148.161 159.685C148.106 159.631 148.063 159.568 148.034 159.498C148.004 159.428 147.989 159.353 147.988 159.277C147.988 159.201 148.002 159.126 148.031 159.055C148.059 158.985 148.101 158.921 148.155 158.867C148.208 158.813 148.272 158.77 148.342 158.74C148.412 158.71 148.487 158.695 148.563 158.694C148.639 158.694 148.714 158.708 148.784 158.737C148.855 158.765 148.919 158.808 148.973 158.861C154.687 164.506 158.022 170.49 157.895 174.874C157.883 175.363 157.844 175.851 157.78 176.337C157.76 176.474 157.692 176.6 157.587 176.691C157.482 176.782 157.348 176.832 157.21 176.832Z" fill="black"/>
<path opacity="0.3" d="M154.111 183.779C154.002 183.779 153.895 183.749 153.802 183.691C153.71 183.633 153.636 183.55 153.589 183.451C153.542 183.353 153.524 183.244 153.537 183.135C153.549 183.027 153.593 182.925 153.661 182.84C154.611 181.677 155.369 180.37 155.908 178.969C155.962 178.826 156.071 178.711 156.21 178.648C156.349 178.586 156.508 178.581 156.651 178.635C156.794 178.689 156.909 178.798 156.972 178.937C157.034 179.077 157.039 179.235 156.985 179.378C156.403 180.895 155.582 182.308 154.554 183.566C154.501 183.632 154.433 183.685 154.356 183.722C154.28 183.759 154.196 183.778 154.111 183.779Z" fill="black"/>
<path opacity="0.3" d="M112.165 211.168C113.868 204.341 107.931 196.98 98.9026 194.728C89.8745 192.475 81.1748 196.184 79.4712 203.011C77.7677 209.838 83.7054 217.199 92.7335 219.452C101.762 221.704 110.461 217.996 112.165 211.168Z" fill="black"/>
<path d="M111.354 209.928C113.058 203.101 107.12 195.74 98.092 193.487C89.0639 191.235 80.3642 194.943 78.6607 201.771C76.9572 208.598 82.8949 215.959 91.923 218.212C100.951 220.464 109.651 216.756 111.354 209.928Z" fill="white" stroke="#263238" stroke-linecap="round" stroke-linejoin="round"/>
<path d="M89.9213 203.789C90.025 205.333 89.4317 206.634 88.6023 206.669C87.7728 206.704 87.0068 205.517 86.8743 203.973C86.7418 202.43 87.3639 201.122 88.1991 201.093C89.0343 201.064 89.8176 202.24 89.9213 203.789Z" stroke="#263238" stroke-linecap="round" stroke-linejoin="round"/>
<path d="M101.338 206.651C101.441 208.201 100.848 209.497 100.019 209.531C99.1891 209.566 98.423 208.379 98.2905 206.83C98.1581 205.281 98.7801 203.985 99.6153 203.95C100.451 203.915 101.217 205.102 101.338 206.651Z" stroke="#263238" stroke-linecap="round" stroke-linejoin="round"/>
<path d="M94.8747 185.892C94.4715 187.569 93.4405 188.772 92.5707 188.554C91.701 188.335 91.3208 186.825 91.7298 185.132C92.1387 183.439 93.164 182.252 94.0338 182.465C94.9035 182.678 95.2837 184.21 94.8747 185.892Z" fill="#263238" stroke="#263238" stroke-linecap="round" stroke-linejoin="round"/>
<path d="M105.498 188.208C105.903 186.526 105.527 184.992 104.658 184.783C103.789 184.573 102.756 185.767 102.351 187.45C101.945 189.132 102.321 190.666 103.19 190.875C104.059 191.085 105.092 189.891 105.498 188.208Z" fill="#263238" stroke="#263238" stroke-linecap="round" stroke-linejoin="round"/>
<path d="M121.359 249.408L127.695 264.442C127.923 264.979 128.304 265.438 128.79 265.761C129.277 266.084 129.848 266.256 130.431 266.256H141.951C142.53 266.255 143.096 266.086 143.579 265.769C144.063 265.452 144.444 265.001 144.676 264.471L151.588 248.498H151.288" fill="white"/>
<path opacity="0.3" d="M134.745 247.49C131.094 247.49 126.843 247.968 123.404 247.173L129.325 264.413C129.466 264.914 129.76 265.358 130.166 265.683C130.572 266.008 131.07 266.199 131.589 266.227H141.081C141.595 266.199 142.086 266.012 142.489 265.692C142.891 265.372 143.184 264.935 143.328 264.442L149.059 246.856L146.755 247.173C139.446 247.968 139.636 247.49 134.745 247.49Z" fill="black"/>
<path d="M121.359 249.408L127.695 264.442C127.923 264.979 128.304 265.438 128.79 265.761C129.277 266.084 129.848 266.256 130.431 266.256H141.951C142.53 266.255 143.096 266.086 143.579 265.769C144.063 265.452 144.444 265.001 144.676 264.471L151.588 248.498H151.288" stroke="#263238" stroke-linecap="round" stroke-linejoin="round"/>
<path d="M41.4961 266.228H269.592" stroke="#263238" stroke-linecap="round" stroke-linejoin="round"/>
<path d="M21.3362 266.228H31.7042" stroke="#263238" stroke-linecap="round" stroke-linejoin="round"/>
</svg>
