<svg width="26" height="26" viewBox="0 0 26 26" fill="none" xmlns="http://www.w3.org/2000/svg">
    <path d="M4.42861 1.25006C2.54198 1.25006 1.00006 2.79198 1.00006 4.67861V7.53574C0.998986 7.61146 1.01298 7.68664 1.04121 7.75691C1.06945 7.82718 1.11137 7.89113 1.16454 7.94506C1.2177 7.99898 1.28106 8.0418 1.35092 8.07103C1.42078 8.10025 1.49575 8.11531 1.57148 8.11531C1.64721 8.11531 1.72218 8.10025 1.79205 8.07103C1.86191 8.0418 1.92526 7.99898 1.97843 7.94506C2.0316 7.89113 2.07352 7.82718 2.10175 7.75691C2.12999 7.68664 2.14398 7.61146 2.14291 7.53574V4.67861C2.14291 3.40983 3.15983 2.39291 4.42861 2.39291H7.28574C7.36146 2.39398 7.43664 2.37999 7.50691 2.35175C7.57718 2.32352 7.64113 2.2816 7.69506 2.22843C7.74898 2.17526 7.7918 2.11191 7.82103 2.04205C7.85025 1.97218 7.86531 1.89721 7.86531 1.82148C7.86531 1.74575 7.85025 1.67078 7.82103 1.60092C7.7918 1.53106 7.74898 1.4677 7.69506 1.41454C7.64113 1.36137 7.57718 1.31945 7.50691 1.29121C7.43664 1.26298 7.36146 1.24899 7.28574 1.25006H4.42861ZM18.7143 1.25006C18.6385 1.24899 18.5634 1.26298 18.4931 1.29121C18.4228 1.31945 18.3589 1.36137 18.3049 1.41454C18.251 1.4677 18.2082 1.53106 18.179 1.60092C18.1497 1.67078 18.1347 1.74575 18.1347 1.82148C18.1347 1.89721 18.1497 1.97218 18.179 2.04205C18.2082 2.11191 18.251 2.17526 18.3049 2.22843C18.3589 2.2816 18.4228 2.32352 18.4931 2.35175C18.5634 2.37999 18.6385 2.39398 18.7143 2.39291H21.5714C22.8402 2.39291 23.8571 3.40983 23.8571 4.67861V7.53574C23.856 7.61146 23.87 7.68664 23.8982 7.75691C23.9265 7.82718 23.9684 7.89113 24.0216 7.94506C24.0747 7.99898 24.1381 8.0418 24.208 8.07103C24.2778 8.10025 24.3528 8.11531 24.4285 8.11531C24.5042 8.11531 24.5792 8.10025 24.6491 8.07103C24.7189 8.0418 24.7823 7.99898 24.8355 7.94506C24.8886 7.89113 24.9306 7.82718 24.9588 7.75691C24.987 7.68664 25.001 7.61146 24.9999 7.53574V4.67861C24.9999 2.79198 23.458 1.25006 21.5714 1.25006H18.7143ZM7.84824 9.24221C7.69688 9.24457 7.55265 9.30689 7.44719 9.41549C7.34173 9.52408 7.28367 9.67008 7.28574 9.82145V11.5357C7.28467 11.6114 7.29866 11.6866 7.3269 11.7569C7.35513 11.8272 7.39705 11.8911 7.45022 11.945C7.50339 11.999 7.56674 12.0418 7.6366 12.071C7.70647 12.1002 7.78144 12.1153 7.85717 12.1153C7.9329 12.1153 8.00787 12.1002 8.07773 12.071C8.14759 12.0418 8.21095 11.999 8.26411 11.945C8.31728 11.8911 8.3592 11.8272 8.38744 11.7569C8.41567 11.6866 8.42966 11.6114 8.42859 11.5357V9.82145C8.42964 9.74499 8.41534 9.66911 8.38653 9.59829C8.35772 9.52747 8.31499 9.46314 8.26087 9.40913C8.20676 9.35512 8.14235 9.31252 8.07148 9.28384C8.0006 9.25517 7.92469 9.24101 7.84824 9.24221V9.24221ZM13.5625 9.24221C13.4111 9.24457 13.2669 9.30689 13.1614 9.41549C13.056 9.52408 12.9979 9.67008 13 9.82145V14.3929C13 14.7157 12.7514 14.9643 12.4286 14.9643H11.8571C11.7814 14.9632 11.7062 14.9772 11.636 15.0054C11.5657 15.0337 11.5018 15.0756 11.4478 15.1288C11.3939 15.1819 11.3511 15.2453 11.3219 15.3151C11.2926 15.385 11.2776 15.46 11.2776 15.5357C11.2776 15.6114 11.2926 15.6864 11.3219 15.7563C11.3511 15.8261 11.3939 15.8895 11.4478 15.9426C11.5018 15.9958 11.5657 16.0377 11.636 16.066C11.7062 16.0942 11.7814 16.1082 11.8571 16.1071H12.4286C13.3686 16.1071 14.1429 15.3328 14.1429 14.3929V9.82145C14.1439 9.74499 14.1296 9.66911 14.1008 9.59829C14.072 9.52747 14.0292 9.46314 13.9751 9.40913C13.921 9.35512 13.8566 9.31252 13.7857 9.28384C13.7149 9.25517 13.6389 9.24101 13.5625 9.24221ZM18.1339 9.24221C17.9825 9.24457 17.8383 9.30689 17.7329 9.41549C17.6274 9.52408 17.5693 9.67008 17.5714 9.82145V11.5357C17.5703 11.6114 17.5843 11.6866 17.6126 11.7569C17.6408 11.8272 17.6827 11.8911 17.7359 11.945C17.7891 11.999 17.8524 12.0418 17.9223 12.071C17.9921 12.1002 18.0671 12.1153 18.1428 12.1153C18.2186 12.1153 18.2935 12.1002 18.3634 12.071C18.4333 12.0418 18.4966 11.999 18.5498 11.945C18.6029 11.8911 18.6449 11.8272 18.6731 11.7569C18.7013 11.6866 18.7153 11.6114 18.7143 11.5357V9.82145C18.7153 9.74499 18.701 9.66911 18.6722 9.59829C18.6434 9.52747 18.6007 9.46314 18.5465 9.40913C18.4924 9.35512 18.428 9.31252 18.3571 9.28384C18.2863 9.25517 18.2104 9.24101 18.1339 9.24221ZM1.56255 17.8136C1.4112 17.816 1.26696 17.8783 1.16151 17.9869C1.05605 18.0955 0.997984 18.2415 1.00006 18.3928V21.8214C1.00006 23.708 2.54198 25.2499 4.42861 25.2499H7.28574C7.36146 25.251 7.43664 25.237 7.50691 25.2088C7.57718 25.1806 7.64113 25.1386 7.69506 25.0855C7.74898 25.0323 7.7918 24.9689 7.82103 24.8991C7.85025 24.8292 7.86531 24.7542 7.86531 24.6785C7.86531 24.6028 7.85025 24.5278 7.82103 24.458C7.7918 24.3881 7.74898 24.3247 7.69506 24.2716C7.64113 24.2184 7.57718 24.1765 7.50691 24.1482C7.43664 24.12 7.36146 24.106 7.28574 24.1071H4.42861C3.15983 24.1071 2.14291 23.0902 2.14291 21.8214V18.3928C2.14396 18.3164 2.12965 18.2405 2.10084 18.1697C2.07203 18.0989 2.02931 18.0345 1.97519 17.9805C1.92107 17.9265 1.85667 17.8839 1.78579 17.8552C1.71491 17.8266 1.639 17.8124 1.56255 17.8136V17.8136ZM16.423 17.8136C16.2722 17.8172 16.129 17.8801 16.0245 17.9888C16.0245 17.9888 15.8191 18.2015 15.3158 18.4531C14.8126 18.7047 14.0476 18.9643 13 18.9643C11.9524 18.9643 11.1874 18.7047 10.6842 18.4531C10.1809 18.2015 9.97546 17.9888 9.97546 17.9888C9.92221 17.9341 9.85853 17.8906 9.78818 17.8609C9.71783 17.8311 9.64223 17.8158 9.56586 17.8158C9.45219 17.8159 9.3411 17.8498 9.24681 17.9133C9.15252 17.9768 9.07931 18.0669 9.03654 18.1723C8.99376 18.2776 8.98337 18.3933 9.00668 18.5045C9.03 18.6158 9.08597 18.7176 9.16743 18.7968C9.16743 18.7968 9.53343 19.1556 10.173 19.4754C10.8126 19.7952 11.7619 20.1071 13 20.1071C14.2381 20.1071 15.1874 19.7952 15.827 19.4754C16.4666 19.1556 16.8326 18.7968 16.8326 18.7968C16.9156 18.717 16.9725 18.614 16.996 18.5013C17.0194 18.3886 17.0083 18.2714 16.964 18.1652C16.9197 18.0589 16.8444 17.9685 16.7478 17.9057C16.6513 17.843 16.5381 17.8109 16.423 17.8136ZM24.4196 17.8136C24.2682 17.816 24.124 17.8783 24.0185 17.9869C23.9131 18.0955 23.855 18.2415 23.8571 18.3928V21.8214C23.8571 23.0902 22.8402 24.1071 21.5714 24.1071H18.7143C18.6385 24.106 18.5634 24.12 18.4931 24.1482C18.4228 24.1765 18.3589 24.2184 18.3049 24.2716C18.251 24.3247 18.2082 24.3881 18.179 24.458C18.1497 24.5278 18.1347 24.6028 18.1347 24.6785C18.1347 24.7542 18.1497 24.8292 18.179 24.8991C18.2082 24.9689 18.251 25.0323 18.3049 25.0855C18.3589 25.1386 18.4228 25.1806 18.4931 25.2088C18.5634 25.237 18.6385 25.251 18.7143 25.2499H21.5714C23.458 25.2499 24.9999 23.708 24.9999 21.8214V18.3928C25.001 18.3164 24.9867 18.2405 24.9579 18.1697C24.9291 18.0989 24.8863 18.0345 24.8322 17.9805C24.7781 17.9265 24.7137 17.8839 24.6428 17.8552C24.5719 17.8266 24.496 17.8124 24.4196 17.8136V17.8136Z" stroke="#011A1A" stroke-opacity="0.4" stroke-width="1.2"/>
</svg>
