<svg width="18" height="17" viewBox="0 0 18 17" fill="none" xmlns="http://www.w3.org/2000/svg">
<path d="M1.46965 0.756291C1.63358 0.592354 1.85453 0.520175 2.06867 0.539754C2.08975 0.575608 2.11567 0.609398 2.14645 0.640174L16.6464 15.1402C16.6772 15.1709 16.711 15.1969 16.7468 15.2179C16.7664 15.4321 16.6942 15.653 16.5303 15.817C16.3664 15.9809 16.1455 16.0531 15.9313 16.0335C15.9103 15.9976 15.8843 15.9638 15.8536 15.9331L1.35355 1.43307C1.32277 1.40228 1.28897 1.37635 1.25311 1.35528C1.23354 1.14115 1.30572 0.920218 1.46965 0.756291Z" fill="#011A1A" fill-opacity="0.4"/>
<path d="M2.42521 3.91894C1.20979 5.17907 0.560174 6.59936 0.247793 7.46869C0.0567252 8.00042 0.0567252 8.57282 0.247793 9.10455C0.911563 10.9518 3.09798 15.2866 8.99998 15.2866C10.5828 15.2866 11.8985 14.9748 12.9891 14.4829L9.70869 11.2024C9.48146 11.2575 9.24413 11.2866 8.99998 11.2866C7.34312 11.2866 5.99998 9.94348 5.99998 8.28662C5.99998 8.04247 6.02914 7.80514 6.08418 7.57791L2.42521 3.91894Z" fill="#011A1A" fill-opacity="0.4"/>
<path d="M17.7522 9.10455C17.4398 9.97388 16.7902 11.3942 15.5748 12.6543L11.9158 8.9953C11.9708 8.76808 12 8.53076 12 8.28662C12 6.62977 10.6568 5.28662 8.99998 5.28662C8.75584 5.28662 8.51852 5.31578 8.2913 5.37081L5.01086 2.09037C6.10152 1.59841 7.41713 1.28662 8.99998 1.28662C14.902 1.28662 17.0884 5.62147 17.7522 7.46869C17.9432 8.00042 17.9432 8.57282 17.7522 9.10455Z" fill="#011A1A" fill-opacity="0.4"/>
</svg>
