<svg width="24" height="24" viewBox="0 0 24 24" fill="none" xmlns="http://www.w3.org/2000/svg">
<path fill-rule="evenodd" clip-rule="evenodd" d="M4 12.375C4 7.74961 7.74961 4 12.375 4C17.0004 4 20.75 7.74961 20.75 12.375C20.75 17.0004 17.0004 20.75 12.375 20.75C7.74961 20.75 4 17.0004 4 12.375ZM10.2536 9.34254C10.002 9.09095 9.59412 9.09095 9.34254 9.34254C9.09095 9.59412 9.09095 10.002 9.34254 10.2536L11.4639 12.375L9.34254 14.4964C9.09095 14.748 9.09095 15.1559 9.34254 15.4075C9.59412 15.659 10.002 15.659 10.2536 15.4075L12.375 13.2861L14.4964 15.4075C14.748 15.659 15.1559 15.659 15.4075 15.4075C15.659 15.1559 15.659 14.748 15.4075 14.4964L13.2861 12.375L15.4075 10.2536C15.659 10.002 15.659 9.59412 15.4075 9.34254C15.1559 9.09095 14.748 9.09095 14.4964 9.34254L12.375 11.4639L10.2536 9.34254Z" fill="#011A1A" fill-opacity="0.4"/>
</svg>
