<svg width="269" height="322" viewBox="0 0 269 322" fill="none" xmlns="http://www.w3.org/2000/svg">
<path d="M21.7219 35.7101C21.7219 35.7101 17.736 34.2988 16.8311 37.8646C15.9262 41.4304 21.2048 42.7555 21.8512 42.7555C22.4976 42.7555 23.521 41.8613 22.8746 39.8037C22.2283 37.7461 21.7219 35.7101 21.7219 35.7101Z" fill="#263238" stroke="#263238" stroke-linecap="round" stroke-linejoin="round"/>
<path d="M44.3443 26.9619C44.3443 26.9619 43.9565 32.1113 43.9565 34.1689C43.9565 36.2265 46.1111 37.0022 47.1883 37.0022C48.2656 37.0022 48.7396 39.4476 48.0932 42.0223C47.4469 44.597 45.26 46.1375 39.9813 46.1375C34.7026 46.1375 31.4923 43.8214 31.3631 42.1516C31.2338 40.4818 32.5157 33.264 34.7134 31.3788C36.9111 29.4935 44.3443 26.9619 44.3443 26.9619Z" fill="#263238" stroke="#263238" stroke-linecap="round" stroke-linejoin="round"/>
<path d="M25.072 42.7871V44.7801C25.0727 45.0937 25.1634 45.4005 25.3334 45.664C25.5033 45.9276 25.7454 46.1368 26.0308 46.2667C26.9555 46.6579 27.9381 46.8944 28.9395 46.967C30.9568 46.9673 32.9497 46.5261 34.7783 45.6742C35.0315 45.5663 35.2473 45.386 35.3987 45.1561C35.55 44.9262 35.6303 44.6568 35.6294 44.3815V42.3024C35.627 42.1756 35.5937 42.0513 35.5322 41.9404C35.4707 41.8295 35.3829 41.7354 35.2766 41.6663C35.1703 41.5972 35.0486 41.5552 34.9223 41.544C34.796 41.5329 34.6689 41.5528 34.5521 41.6021L34.1319 41.8176C34.1319 41.8176 27.776 42.6255 25.072 42.7871Z" fill="#1F504B" stroke="#263238" stroke-linecap="round" stroke-linejoin="round"/>
<path d="M22.2491 25.9275C21.5447 28.7574 21.0692 31.6395 20.8271 34.5457C20.4393 39.3073 20.8271 43.6811 22.7555 43.8104C24.0784 43.8127 25.3748 43.4391 26.4936 42.7331C26.4936 42.7331 30.9967 43.2502 32.5372 42.4853L34.0885 41.7097L35.2411 34.1687C35.2411 34.1687 35.3704 22.4586 33.1836 21.683C30.9967 20.9074 22.2491 25.9275 22.2491 25.9275Z" fill="white" stroke="#263238" stroke-linecap="round" stroke-linejoin="round"/>
<path d="M25.7182 31.207L24.6948 33.911C24.6948 33.911 22.6264 34.4281 22.885 35.4515C23.1435 36.4749 24.5117 36.3241 24.5117 36.3241" stroke="#263238" stroke-linecap="round" stroke-linejoin="round"/>
<path d="M29.0254 32.3802C28.8208 32.9404 28.4006 33.3067 28.1098 33.199C27.8189 33.0913 27.7327 32.5418 27.9482 31.9709C28.1636 31.3999 28.573 31.0336 28.8746 31.1521C29.1763 31.2706 29.2625 31.8524 29.0254 32.3802Z" fill="#263238"/>
<path d="M24.1777 31.0775C23.9622 31.6485 23.5529 32.0148 23.2512 31.9071C22.9496 31.7993 22.8849 31.2391 23.0896 30.679C23.2943 30.1188 23.7145 29.7417 24.0161 29.8494C24.3177 29.9572 24.3824 30.5174 24.1777 31.0775Z" fill="#263238"/>
<path d="M28.0347 28.7612C28.0347 28.7612 30.4801 28.1148 30.7387 30.4417" stroke="#263238" stroke-linecap="round" stroke-linejoin="round"/>
<path d="M24.8238 28.1145C24.8238 28.1145 22.6693 27.3496 21.9906 29.1917" stroke="#263238" stroke-linecap="round" stroke-linejoin="round"/>
<path d="M26.494 42.7872L29.9628 41.376" stroke="#263238" stroke-linecap="round" stroke-linejoin="round"/>
<path d="M23.8759 20.0031C23.8759 20.0031 19.7607 15.1122 16.6689 18.7103C13.5771 22.3084 14.5143 27.7272 20.0192 27.9857C25.5241 28.2443 31.7293 22.8363 31.7293 22.8363C31.7293 22.8363 31.0829 29.9141 32.6234 32.3595C34.1639 34.8049 35.3274 36.4747 35.3274 36.4747C35.3274 36.4747 37.482 37.8859 41.1232 35.0635C44.7644 32.241 45.6262 25.3679 43.0515 20.7679C40.4768 16.1679 35.9738 13.5609 30.5658 15.3815C25.1578 17.2021 23.8759 20.0031 23.8759 20.0031Z" fill="#263238" stroke="#263238" stroke-linecap="round" stroke-linejoin="round"/>
<path d="M32.796 36.3561C32.796 36.3561 37.4283 32.1116 37.4283 34.5571C37.4283 37.0025 35.2738 39.1894 33.5716 38.6723" fill="white"/>
<path d="M32.796 36.3561C32.796 36.3561 37.4283 32.1116 37.4283 34.5571C37.4283 37.0025 35.2738 39.1894 33.5716 38.6723" stroke="#263238" stroke-linecap="round" stroke-linejoin="round"/>
<path d="M22.8848 38.3164C23.4935 38.7547 24.2246 38.9906 24.9747 38.9906C25.7248 38.9906 26.4559 38.7547 27.0646 38.3164" stroke="#263238" stroke-linecap="round" stroke-linejoin="round"/>
<path d="M46.791 46.4509C55.0171 37.6971 54.5894 23.9322 45.8356 15.7062C37.0818 7.48008 23.3169 7.90786 15.0909 16.6616C6.86478 25.4154 7.29254 39.1803 16.0463 47.4064C24.8001 55.6324 38.565 55.2047 46.791 46.4509Z" stroke="#263238" stroke-linecap="round" stroke-linejoin="round"/>
<path d="M145.479 68.6422H59.7601V30.4526V20.3262L69.8974 30.4526H145.479V68.6422Z" fill="#D6D6D6" stroke="#263238" stroke-linecap="round" stroke-linejoin="round"/>
<path d="M145.479 123.961H59.7601V85.7817V75.6553L69.8974 85.7817H145.479V123.961Z" fill="#D6D6D6" stroke="#263238" stroke-linecap="round" stroke-linejoin="round"/>
<path d="M116.997 43.5957H137.174" stroke="#263238" stroke-linecap="round" stroke-linejoin="round"/>
<path d="M88.7604 43.5957H111.814" stroke="#263238" stroke-linecap="round" stroke-linejoin="round"/>
<path d="M71.4706 43.5957H84.7212" stroke="#263238" stroke-linecap="round" stroke-linejoin="round"/>
<path d="M107.775 49.9404H137.174" stroke="#263238" stroke-linecap="round" stroke-linejoin="round"/>
<path d="M71.4706 49.9404H102.593" stroke="#263238" stroke-linecap="round" stroke-linejoin="round"/>
<path d="M131.411 56.2754H137.174" stroke="#263238" stroke-linecap="round" stroke-linejoin="round"/>
<path d="M99.1352 56.2754H126.8" stroke="#263238" stroke-linecap="round" stroke-linejoin="round"/>
<path d="M71.4706 56.2754H94.5244" stroke="#263238" stroke-linecap="round" stroke-linejoin="round"/>
<path d="M116.997 97.1904H137.174" stroke="#263238" stroke-linecap="round" stroke-linejoin="round"/>
<path d="M88.7604 97.1904H111.814" stroke="#263238" stroke-linecap="round" stroke-linejoin="round"/>
<path d="M71.4706 97.1904H84.7212" stroke="#263238" stroke-linecap="round" stroke-linejoin="round"/>
<path d="M107.775 103.535H137.174" stroke="#263238" stroke-linecap="round" stroke-linejoin="round"/>
<path d="M71.4706 103.535H102.593" stroke="#263238" stroke-linecap="round" stroke-linejoin="round"/>
<path d="M131.411 109.87H137.174" stroke="#263238" stroke-linecap="round" stroke-linejoin="round"/>
<path d="M99.1352 109.87H126.8" stroke="#263238" stroke-linecap="round" stroke-linejoin="round"/>
<path d="M71.4706 109.87H94.5244" stroke="#263238" stroke-linecap="round" stroke-linejoin="round"/>
<path d="M116.997 199.779H137.174" stroke="white" stroke-linecap="round" stroke-linejoin="round"/>
<path d="M88.7604 199.779H111.814" stroke="white" stroke-linecap="round" stroke-linejoin="round"/>
<path d="M241.051 288.601C253.748 288.601 264.041 278.309 264.041 265.612C264.041 252.916 253.748 242.623 241.051 242.623C228.355 242.623 218.062 252.916 218.062 265.612C218.062 278.309 228.355 288.601 241.051 288.601Z" stroke="#263238" stroke-linecap="round" stroke-linejoin="round"/>
<path d="M127.085 321.19H212.804V266.679V256.553L202.667 266.679H127.085V321.19Z" fill="#1F504B" stroke="#263238" stroke-linecap="round" stroke-linejoin="round"/>
<path d="M184.322 279.283H204.499" stroke="white" stroke-linecap="round" stroke-linejoin="round"/>
<path d="M156.085 279.283H179.139" stroke="white" stroke-linecap="round" stroke-linejoin="round"/>
<path d="M138.796 279.283H152.046" stroke="white" stroke-linecap="round" stroke-linejoin="round"/>
<path d="M175.1 285.629H204.499" stroke="white" stroke-linecap="round" stroke-linejoin="round"/>
<path d="M138.796 285.629H169.918" stroke="white" stroke-linecap="round" stroke-linejoin="round"/>
<path d="M198.736 291.963H204.499" stroke="white" stroke-linecap="round" stroke-linejoin="round"/>
<path d="M166.46 291.963H194.125" stroke="white" stroke-linecap="round" stroke-linejoin="round"/>
<path d="M138.796 291.963H161.849" stroke="white" stroke-linecap="round" stroke-linejoin="round"/>
<path d="M184.322 297.155H204.499" stroke="white" stroke-linecap="round" stroke-linejoin="round"/>
<path d="M156.085 297.155H179.139" stroke="white" stroke-linecap="round" stroke-linejoin="round"/>
<path d="M138.796 297.155H152.046" stroke="white" stroke-linecap="round" stroke-linejoin="round"/>
<path d="M175.1 303.49H204.499" stroke="white" stroke-linecap="round" stroke-linejoin="round"/>
<path d="M138.796 303.49H169.918" stroke="white" stroke-linecap="round" stroke-linejoin="round"/>
<path d="M198.736 309.824H204.499" stroke="white" stroke-linecap="round" stroke-linejoin="round"/>
<path d="M166.46 309.824H194.125" stroke="white" stroke-linecap="round" stroke-linejoin="round"/>
<path d="M138.796 309.824H161.849" stroke="white" stroke-linecap="round" stroke-linejoin="round"/>
<path d="M238.271 252.025C236.084 251.894 233.915 252.495 232.109 253.734C230.302 254.973 228.96 256.779 228.295 258.866C225.822 265.478 224.431 272.444 224.176 279.498C224.176 283.868 232.826 287.325 237.554 287.683C242.282 288.041 252.921 287.862 256.574 282.042C260.228 276.221 254.3 264.4 252.831 257.111C251.363 249.822 243.357 251.667 238.271 252.025Z" fill="#263238" stroke="#263238" stroke-width="1.10919" stroke-linecap="round" stroke-linejoin="round"/>
<path d="M251.578 266.621C251.578 266.621 253.798 263.666 254.282 266.621C254.766 269.576 250.503 273.266 250.503 273.266L251.578 266.621Z" fill="white" stroke="#263238" stroke-width="1.10919" stroke-linecap="round" stroke-linejoin="round"/>
<path d="M230.337 266.621C230.337 266.621 228.116 263.666 227.632 266.621C227.149 269.576 231.411 273.266 231.411 273.266L230.337 266.621Z" fill="white" stroke="#263238" stroke-width="1.10919" stroke-linecap="round" stroke-linejoin="round"/>
<path d="M241.709 252.042C241.709 252.042 233.345 251.397 231.411 256.985C229.477 262.573 230.766 271.546 231.411 273.265C232.056 274.985 237.411 283.349 238.915 284.011C240.42 284.674 244.055 284.441 244.7 283.581C245.345 282.722 250.7 274.788 251.13 271.994C251.305 267.897 251.228 263.794 250.897 259.708C250.822 258.268 250.339 256.879 249.505 255.702C248.671 254.526 247.521 253.611 246.187 253.063C244.76 252.481 243.247 252.136 241.709 252.042Z" fill="white" stroke="#263238" stroke-width="1.10919" stroke-linecap="round" stroke-linejoin="round"/>
<path d="M235.351 254.21C235.351 254.21 248.873 266.621 251.577 266.621C254.282 266.621 254.64 257.487 251.721 253.117C248.801 248.747 234.921 246.204 235.351 254.21Z" fill="#263238" stroke="#263238" stroke-width="1.10919" stroke-linecap="round" stroke-linejoin="round"/>
<path d="M239.194 266.373L238.893 270.909C238.893 270.909 236.408 273.278 236.877 274.055C237.346 274.832 239.724 274.622 239.724 274.622" stroke="#263238" stroke-linecap="round" stroke-linejoin="round"/>
<path d="M244.707 266.624C244.656 267.56 244.191 268.303 243.705 268.275C243.218 268.246 242.837 267.459 242.899 266.502C242.961 265.544 243.409 264.806 243.917 264.846C244.425 264.886 244.821 265.721 244.707 266.624Z" fill="#263238"/>
<path d="M236.818 266.885C236.755 267.843 236.307 268.581 235.804 268.557C235.301 268.534 234.947 267.721 234.999 266.784C235.05 265.848 235.509 265.089 236.012 265.112C236.515 265.136 236.869 265.949 236.818 266.885Z" fill="#263238"/>
<path d="M241.558 261.635C241.558 261.635 244.939 259.542 246.394 262.923" stroke="#263238" stroke-linecap="round" stroke-linejoin="round"/>
<path d="M236.433 262.134C236.433 262.134 232.842 261.971 232.665 265.052" stroke="#263238" stroke-linecap="round" stroke-linejoin="round"/>
<path d="M238.191 278.364C239.307 278.745 240.515 278.764 241.643 278.421C242.771 278.077 243.762 277.387 244.477 276.449" stroke="#263238" stroke-linecap="round" stroke-linejoin="round"/>
<path d="M246.281 166.208C258.644 163.317 266.323 150.952 263.432 138.588C260.542 126.225 248.176 118.546 235.813 121.437C223.45 124.328 215.771 136.693 218.661 149.056C221.552 161.419 233.918 169.098 246.281 166.208Z" stroke="#263238" stroke-linecap="round" stroke-linejoin="round"/>
<path d="M127.085 237.246H212.804V144.891V134.765L202.667 144.891H127.085V237.246Z" fill="#1F504B" stroke="#263238" stroke-linecap="round" stroke-linejoin="round"/>
<path d="M138.796 157.496H152.046" stroke="white" stroke-linecap="round" stroke-linejoin="round"/>
<path d="M175.1 163.83H204.499" stroke="white" stroke-linecap="round" stroke-linejoin="round"/>
<path d="M138.796 163.83H169.918" stroke="white" stroke-linecap="round" stroke-linejoin="round"/>
<path d="M198.736 170.176H204.499" stroke="white" stroke-linecap="round" stroke-linejoin="round"/>
<path d="M166.46 170.176H194.125" stroke="white" stroke-linecap="round" stroke-linejoin="round"/>
<path d="M138.796 170.176H161.849" stroke="white" stroke-linecap="round" stroke-linejoin="round"/>
<path d="M184.322 175.357H204.499" stroke="white" stroke-linecap="round" stroke-linejoin="round"/>
<path d="M156.085 175.357H179.139" stroke="white" stroke-linecap="round" stroke-linejoin="round"/>
<path d="M138.796 175.357H152.046" stroke="white" stroke-linecap="round" stroke-linejoin="round"/>
<path d="M175.1 181.702H204.499" stroke="white" stroke-linecap="round" stroke-linejoin="round"/>
<path d="M138.796 181.702H169.918" stroke="white" stroke-linecap="round" stroke-linejoin="round"/>
<path d="M198.736 188.037H204.499" stroke="white" stroke-linecap="round" stroke-linejoin="round"/>
<path d="M166.46 188.037H194.125" stroke="white" stroke-linecap="round" stroke-linejoin="round"/>
<path d="M138.796 188.037H161.849" stroke="white" stroke-linecap="round" stroke-linejoin="round"/>
<path d="M184.322 193.229H204.499" stroke="white" stroke-linecap="round" stroke-linejoin="round"/>
<path d="M156.085 193.229H179.139" stroke="white" stroke-linecap="round" stroke-linejoin="round"/>
<path d="M138.796 193.229H152.046" stroke="white" stroke-linecap="round" stroke-linejoin="round"/>
<path d="M175.1 199.563H204.499" stroke="white" stroke-linecap="round" stroke-linejoin="round"/>
<path d="M138.796 199.563H169.918" stroke="white" stroke-linecap="round" stroke-linejoin="round"/>
<path d="M198.736 205.909H204.499" stroke="white" stroke-linecap="round" stroke-linejoin="round"/>
<path d="M166.46 205.909H194.125" stroke="white" stroke-linecap="round" stroke-linejoin="round"/>
<path d="M138.796 205.909H161.849" stroke="white" stroke-linecap="round" stroke-linejoin="round"/>
<path d="M184.322 211.091H204.499" stroke="white" stroke-linecap="round" stroke-linejoin="round"/>
<path d="M156.085 211.091H179.139" stroke="white" stroke-linecap="round" stroke-linejoin="round"/>
<path d="M138.796 211.091H152.046" stroke="white" stroke-linecap="round" stroke-linejoin="round"/>
<path d="M175.1 217.436H204.499" stroke="white" stroke-linecap="round" stroke-linejoin="round"/>
<path d="M138.796 217.436H169.918" stroke="white" stroke-linecap="round" stroke-linejoin="round"/>
<path d="M198.736 223.771H204.499" stroke="white" stroke-linecap="round" stroke-linejoin="round"/>
<path d="M166.46 223.771H194.125" stroke="white" stroke-linecap="round" stroke-linejoin="round"/>
<path d="M138.796 223.771H161.849" stroke="white" stroke-linecap="round" stroke-linejoin="round"/>
<path d="M238.115 130.174C235.928 130.043 233.76 130.644 231.954 131.883C230.147 133.122 228.805 134.928 228.139 137.016C225.667 143.627 224.276 150.594 224.02 157.648C224.02 162.018 232.671 165.474 237.399 165.833C242.127 166.191 252.765 166.012 256.419 160.191C260.073 154.37 254.145 142.55 252.676 135.261C251.207 127.971 243.202 129.816 238.115 130.174Z" fill="#263238" stroke="#263238" stroke-width="1.10919" stroke-linecap="round" stroke-linejoin="round"/>
<path d="M251.422 144.77C251.422 144.77 253.643 141.815 254.127 144.77C254.61 147.726 250.348 151.415 250.348 151.415L251.422 144.77Z" fill="white" stroke="#263238" stroke-width="1.10919" stroke-linecap="round" stroke-linejoin="round"/>
<path d="M230.181 144.77C230.181 144.77 227.961 141.815 227.477 144.77C226.994 147.726 231.256 151.415 231.256 151.415L230.181 144.77Z" fill="white" stroke="#263238" stroke-width="1.10919" stroke-linecap="round" stroke-linejoin="round"/>
<path d="M241.554 130.192C241.554 130.192 233.19 129.547 231.256 135.135C229.322 140.723 230.611 149.695 231.256 151.415C231.901 153.134 237.256 161.498 238.76 162.161C240.264 162.823 243.9 162.59 244.545 161.731C245.19 160.871 250.545 152.937 250.974 150.143C251.15 146.047 251.072 141.944 250.742 137.857C250.667 136.417 250.184 135.028 249.35 133.852C248.516 132.675 247.365 131.76 246.031 131.212C244.605 130.631 243.092 130.286 241.554 130.192Z" fill="white" stroke="#263238" stroke-width="1.10919" stroke-linecap="round" stroke-linejoin="round"/>
<path d="M235.196 132.359C235.196 132.359 248.718 144.771 251.422 144.771C254.127 144.771 254.485 135.637 251.565 131.267C248.646 126.897 234.766 124.353 235.196 132.359Z" fill="#263238" stroke="#263238" stroke-width="1.10919" stroke-linecap="round" stroke-linejoin="round"/>
<path d="M239.194 144.372L238.893 148.908C238.893 148.908 236.408 151.277 236.877 152.054C237.346 152.831 239.724 152.621 239.724 152.621" stroke="#263238" stroke-linecap="round" stroke-linejoin="round"/>
<path d="M244.707 144.623C244.656 145.559 244.191 146.302 243.705 146.274C243.218 146.245 242.837 145.458 242.899 144.501C242.961 143.543 243.409 142.805 243.917 142.845C244.425 142.885 244.821 143.72 244.707 144.623Z" fill="#263238"/>
<path d="M236.818 144.884C236.755 145.842 236.307 146.58 235.804 146.556C235.301 146.533 234.947 145.72 234.999 144.783C235.05 143.847 235.509 143.088 236.012 143.111C236.515 143.135 236.869 143.948 236.818 144.884Z" fill="#263238"/>
<path d="M241.558 139.634C241.558 139.634 244.939 137.541 246.394 140.922" stroke="#263238" stroke-linecap="round" stroke-linejoin="round"/>
<path d="M236.433 140.133C236.433 140.133 232.842 139.97 232.665 143.051" stroke="#263238" stroke-linecap="round" stroke-linejoin="round"/>
<path d="M238.191 156.363C239.307 156.744 240.515 156.763 241.643 156.42C242.771 156.076 243.762 155.386 244.477 154.448" stroke="#263238" stroke-linecap="round" stroke-linejoin="round"/>
</svg>
