<svg width="249" height="258" viewBox="0 0 249 258" fill="none" xmlns="http://www.w3.org/2000/svg">
    <path d="M182.831 153.409C152.865 167.189 49.8416 194.298 49.8416 194.298C48.5495 192.802 48.4993 189.434 46.9959 183.987C43.9938 173.109 40.6564 161.016 40.6564 161.016L36.3587 162.202C36.3587 162.202 35.2604 156.098 33.1192 150.464C30.978 144.829 34.2477 143.933 34.2477 143.933L28.4875 123.974L27.0475 118.99C40.7555 111.057 86.1181 101.845 86.1181 101.845L89.1086 107.185L90.8262 110.393L160.373 89.0712C171.387 103.916 182.831 153.409 182.831 153.409Z" fill="white"/>
    <path d="M156.83 106.665L111.491 121.651C109.625 122.268 108.612 124.281 109.229 126.147L112.274 135.36C112.891 137.226 114.904 138.239 116.77 137.622L162.109 122.635C163.975 122.019 164.987 120.006 164.371 118.14L161.325 108.927C160.709 107.061 158.696 106.048 156.83 106.665Z" fill="#011A1A"/>
    <path d="M166.795 127.91L167.371 129.422L115.002 146.079L114.574 144.696L166.795 127.91Z" fill="#011A1A"/>
    <path d="M168.546 133.236L168.98 134.617L116.591 151.18L116.158 149.804L168.546 133.236Z" fill="#011A1A"/>
    <path opacity="0.35" d="M160.363 89.0743C160.363 89.0743 178.948 125.702 182.432 153.769C182.432 153.769 134.086 171.452 116.914 175.183L113.735 166.359L115.091 165.75C115.091 165.75 94.0713 116.18 90.8106 110.397C90.8106 110.397 148.447 89.8656 160.363 89.0743Z" fill="#BECBBF"/>
    <path opacity="0.8" d="M112.07 166.678L114.533 173.331C114.533 173.331 65.3488 189.25 60.5319 188.873C55.715 188.497 59.6312 184.696 70.9605 180.591C82.2898 176.485 112.07 166.678 112.07 166.678Z" fill="white"/>
    <path d="M74.3691 145.979C76.881 145.286 78.4085 142.88 77.7808 140.606C77.1532 138.332 74.608 137.05 72.0961 137.743C69.5842 138.437 68.0567 140.842 68.6843 143.116C69.312 145.391 71.8571 146.672 74.3691 145.979Z" fill="#011A1A"/>
    <path d="M40.6547 161.01C43.8185 172.474 46.6755 182.827 49.9871 194.826C71.0556 188.818 98.5974 181.181 119.524 174.679C140.45 168.177 161.793 161.797 182.857 153.807C182.857 153.807 176.471 117.9 160.34 89.0802C151.458 89.6497 91.019 110.327 91.019 110.327" stroke="#011A1A" stroke-linecap="round" stroke-linejoin="round"/>
    <path d="M112.07 166.678L114.533 173.331L64.9998 188.653C63.0909 189.362 60.1167 190.458 58.0651 190.033C57.1323 189.84 56.2614 188.978 56.4166 188.032C56.5578 187.184 57.3992 186.665 60.6165 185.122C66.0829 182.329 71.8601 180.196 77.6389 178.132C90.0102 173.709 102.485 169.585 115.064 165.758C114.797 165.831 104.674 141.197 103.682 138.939C99.8014 130.103 95.9757 121.211 91.7929 112.512C90.2169 109.132 88.0365 104.801 85.9889 101.684C67.4225 106.679 46.8999 111.782 27.1496 118.359C29.5196 126.947 31.8002 135.21 34.2104 143.943" stroke="#011A1A" stroke-linecap="round" stroke-linejoin="round"/>
    <path d="M55.0496 190.885C54.8358 190.565 54.6651 190.218 54.542 189.853" stroke="#011A1A" stroke-linecap="round" stroke-linejoin="round"/>
    <path d="M54.2882 187.701C54.5121 185.687 56.1202 183.039 61.8498 180.755C72.2988 176.581 95.2019 167.939 108.844 163.611" stroke="#011A1A" stroke-linecap="round" stroke-linejoin="round" stroke-dasharray="3.91 3.91"/>
    <path d="M109.9 163.278L110.979 162.94L110.531 161.891" stroke="#011A1A" stroke-linecap="round" stroke-linejoin="round"/>
    <path d="M109.651 159.889C102.252 142.745 94.623 125.805 86.5869 108.943" stroke="#011A1A" stroke-linecap="round" stroke-linejoin="round" stroke-dasharray="3.88 3.88"/>
    <path d="M86.1258 107.95L85.629 106.915L84.5186 107.14" stroke="#011A1A" stroke-linecap="round" stroke-linejoin="round"/>
    <path d="M82.2782 107.605C73.0529 109.5 46.8776 115.1 30.0169 121.02" stroke="#011A1A" stroke-linecap="round" stroke-linejoin="round" stroke-dasharray="4.07 4.07"/>
    <path d="M28.9283 121.408L27.8629 121.796" stroke="#011A1A" stroke-linecap="round" stroke-linejoin="round"/>
    <path d="M36.2118 161.981L32.3789 148.093C32.2243 147.687 32.1289 147.137 32.1456 146.703C32.1623 146.268 32.1631 146.013 32.3485 145.619C32.5338 145.226 32.7966 144.874 33.1211 144.585C33.4455 144.296 33.825 144.075 34.2368 143.936C42.1161 141.263 62.525 134.458 70.6481 132.902C74.5452 132.155 79.0286 132.236 81.8824 135.376C84.2482 137.959 85.7217 142.406 83.8278 145.59C80.9432 150.431 73.4229 152.196 68.4176 153.77C59.1044 156.728 36.2118 161.981 36.2118 161.981Z" stroke="#011A1A" stroke-linecap="round" stroke-linejoin="round"/>
    <path d="M84.2844 139.596C84.1776 139.21 88.4694 147.029 81.987 151.79C75.5046 156.551 41.7377 164.932 41.7377 164.932L40.6554 161.01C40.6554 161.01 64.51 154.966 68.429 153.767C72.348 152.569 86.7037 150.019 84.2844 139.596Z" fill="#011A1A"/>
    <path d="M32.0512 146.784C32.0512 146.784 60.7391 137.396 68.2038 135.599C75.6685 133.803 79.7403 134.432 81.7549 138.864C83.7695 143.297 80.0834 147.421 76.6605 148.952C73.2376 150.483 37.0912 160.628 37.0912 160.628" stroke="#011A1A" stroke-linecap="round" stroke-linejoin="round" stroke-dasharray="4 4"/>
    <path d="M59.0649 187.807C59.0649 187.807 85.3749 179.063 92.5128 177.527" stroke="#011A1A" stroke-linecap="round" stroke-linejoin="round"/>
    <path d="M85.4526 177.283C85.4526 177.283 92.0184 174.884 96.3466 174.276" stroke="#011A1A" stroke-linecap="round" stroke-linejoin="round"/>
    <path d="M103.01 174.547L113.877 171.548" stroke="#011A1A" stroke-linecap="round" stroke-linejoin="round"/>
    <path d="M93.1118 113.045C93.1118 113.045 139.667 95.6067 159.518 92.7485C159.518 92.7485 167.319 100.836 179.65 149.915C158.856 158.627 137.613 166.225 116.011 172.677" stroke="#011A1A" stroke-linecap="round" stroke-linejoin="round" stroke-dasharray="4 4"/>
    <g opacity="0.1">
        <path d="M194.285 245.129L194.412 245.375C194.412 245.375 194.368 245.282 194.285 245.129Z" fill="#011A1A"/>
    </g>
    <path d="M189.076 97.2169C189.521 96.7071 196.307 90.1566 203.902 102.088C211.498 114.019 222.309 134.905 222.309 134.905L213.319 139.373C213.319 139.373 203.224 137.118 192.099 127.562C192.099 127.562 180.25 127.749 173.556 122.269C167.491 117.284 174.664 90.854 174.664 90.854L189.076 97.2169Z" fill="white"/>
    <path d="M129.93 53.7611L106.125 84.9525C104.057 87.6616 104.577 91.5338 107.286 93.6013L164.319 137.13C167.028 139.198 170.9 138.678 172.968 135.969L196.774 104.777C198.841 102.068 198.321 98.1959 195.612 96.1284L138.579 52.5996C135.87 50.5321 131.998 51.0521 129.93 53.7611Z" fill="#011A1A"/>
    <path d="M195.588 103.82L173.745 132.446C173.126 133.26 172.352 133.944 171.468 134.458C170.584 134.972 169.607 135.307 168.594 135.443C167.58 135.579 166.55 135.513 165.562 135.25C164.573 134.987 163.647 134.531 162.835 133.909L108.366 92.3393C107.48 91.6694 106.752 90.814 106.232 89.8331C105.523 88.5189 105.208 87.0277 105.327 85.539C105.445 84.0503 105.992 82.6276 106.9 81.4421L113.041 73.4048L128.752 52.8078C129.372 51.9951 130.147 51.3126 131.031 50.7992C131.914 50.2858 132.891 49.9516 133.904 49.8157C134.917 49.6798 135.947 49.7449 136.935 50.0072C137.923 50.2695 138.85 50.724 139.662 51.3445L161.516 68.0221L177.764 80.4204L194.107 92.9095C194.921 93.5283 195.605 94.3015 196.12 95.1848C196.635 96.0682 196.971 97.0445 197.109 98.0578C197.246 99.0711 197.183 100.102 196.922 101.09C196.661 102.079 196.208 103.007 195.588 103.82Z" fill="white"/>
    <path opacity="0.1" d="M161.494 68.0282L113.023 73.4039L128.752 52.8078C129.372 51.9952 130.147 51.3126 131.03 50.7992C131.914 50.2858 132.891 49.9516 133.904 49.8157C134.917 49.6798 135.947 49.7449 136.935 50.0072C137.923 50.2695 138.85 50.724 139.662 51.3445L161.494 68.0282Z" fill="#011A1A"/>
    <path opacity="0.1" d="M195.587 103.82L173.744 132.446C173.125 133.26 172.351 133.944 171.467 134.458C170.584 134.972 169.607 135.307 168.593 135.443C167.58 135.579 166.549 135.513 165.561 135.25C164.573 134.987 163.646 134.531 162.835 133.909L108.365 92.3395C107.48 91.6696 106.752 90.8142 106.231 89.8333L179.026 81.4262L194.115 92.9424C195.749 94.1927 196.82 96.039 197.096 98.0774C197.372 100.116 196.83 102.181 195.587 103.82Z" fill="#011A1A"/>
    <path d="M134.149 57.0652L130.292 62.1185C129.52 63.1307 129.714 64.5774 130.726 65.3499L138.78 71.4968C139.792 72.2693 141.239 72.075 142.012 71.0628L145.868 66.0095C146.641 64.9973 146.447 63.5506 145.434 62.7781L137.381 56.6312C136.368 55.8587 134.922 56.053 134.149 57.0652Z" fill="white" stroke="#011A1A" stroke-linecap="round" stroke-linejoin="round"/>
    <path d="M132.299 59.4789L143.885 68.603" stroke="#011A1A" stroke-linecap="round" stroke-linejoin="round"/>
    <path d="M134.772 68.4393L141.435 59.7244" stroke="#011A1A" stroke-linecap="round" stroke-linejoin="round"/>
    <path d="M169.318 129.98L168.171 131.434L144.253 113.18L145.382 111.708L169.318 129.98Z" fill="#011A1A"/>
    <path d="M171.255 127.506L170.112 128.97L146.161 110.685L147.279 109.215L171.255 127.506Z" fill="#011A1A"/>
    <path d="M173.19 125.043L172.049 126.495L148.065 108.195L149.187 106.719L173.19 125.043Z" fill="#011A1A"/>
    <path d="M175.128 122.568L173.982 124.022L150.316 105.962L151.433 104.488L175.128 122.568Z" fill="#011A1A"/>
    <path d="M177.218 119.904L176.073 121.363L152.369 103.273L153.492 101.797L177.218 119.904Z" fill="#011A1A"/>
    <path d="M169.785 92.9743L168.639 94.4278L144.935 76.3379L146.059 74.867L169.785 92.9743Z" fill="#011A1A"/>
    <path d="M120.836 63.2626L119.077 65.5669L185.871 116.545L187.63 114.241L120.836 63.2626Z" fill="#011A1A"/>
    <path d="M195.588 103.82L173.745 132.446C173.126 133.26 172.352 133.944 171.468 134.458C170.584 134.972 169.607 135.307 168.594 135.443C167.58 135.579 166.55 135.513 165.562 135.25C164.573 134.987 163.647 134.531 162.835 133.909L108.366 92.3393C107.48 91.6694 106.752 90.814 106.232 89.8331C105.523 88.5189 105.208 87.0277 105.327 85.539C105.445 84.0503 105.992 82.6276 106.9 81.4421L113.041 73.4048L128.752 52.8078C129.372 51.9951 130.147 51.3126 131.031 50.7992C131.914 50.2858 132.891 49.9516 133.904 49.8157C134.917 49.6798 135.947 49.7449 136.935 50.0072C137.923 50.2695 138.85 50.724 139.662 51.3445L161.516 68.0221L177.764 80.4204L194.107 92.9095C194.921 93.5283 195.605 94.3015 196.12 95.1848C196.635 96.0682 196.971 97.0445 197.109 98.0578C197.246 99.0711 197.183 100.102 196.922 101.09C196.661 102.079 196.208 103.007 195.588 103.82V103.82Z" stroke="#011A1A" stroke-linecap="round" stroke-linejoin="round"/>
</svg>
